<svg xmlns="http://www.w3.org/2000/svg" viewBox="0 0 100 100">
  <rect x="10" y="20" width="80" height="70" fill="#E5E7EB"/>
  <rect x="15" y="30" width="10" height="10" fill="#2563EB"/>
  <rect x="35" y="30" width="10" height="10" fill="#2563EB"/>
  <rect x="55" y="30" width="10" height="10" fill="#2563EB"/>
  <rect x="75" y="30" width="10" height="10" fill="#2563EB"/>
  <rect x="15" y="50" width="10" height="10" fill="#2563EB"/>
  <rect x="35" y="50" width="10" height="10" fill="#2563EB"/>
  <rect x="55" y="50" width="10" height="10" fill="#2563EB"/>
  <rect x="75" y="50" width="10" height="10" fill="#2563EB"/>
  <rect x="15" y="70" width="10" height="10" fill="#2563EB"/>
  <rect x="35" y="70" width="10" height="10" fill="#2563EB"/>
  <rect x="55" y="70" width="10" height="10" fill="#2563EB"/>
  <rect x="75" y="70" width="10" height="10" fill="#2563EB"/>
  <rect x="40" y="90" width="20" height="10" fill="#FBBF24"/>
  <rect x="5" y="10" width="90" height="10" fill="#4B5563"/>
</svg>
